<svg xmlns="http://www.w3.org/2000/svg" viewBox="0 0 425 425"><defs><style>.a{fill:#6cd3d8;}.a,.c{stroke:#fff;}.a,.b,.c{stroke-width:0.27px;}.b{fill:#d4d5d6;}.b,.d,.e{stroke:#a9aaad;}.c{fill:#0ab6be;}.d{fill:#fff;}.d,.e{stroke-width:0.66px;}.e{fill:none;}.f{fill:#a9aaad;}</style></defs><title>Coverage-map-04</title><path class="a" d="M141.2,39.6l-1.3,1.9v3.2l.7,3.3-.5,2.3-2.8,3.1v1.2l1.1,3,1.8,1.4.6,1.9,2.8,2.3,2.2,9-.9.5,1.5,2.7.8,2.9.4,5.8-.6,2.2.5,3.8-1.4,1-.2,1.3,2.3,3.6,1.1,3.6,1.8.2,3.3,1.1,2,3.9L146,112.2l-7.7,5.5-6.6,6.7-6.6,1.7-3.4.7-1.2-.8.6-1.2-.2-1.9-3.3-1.3-.8-.9-2.2-.6-2.1-2.2v-1.3l-9.9-7.8-8-6.2-6.3-5-5.7-4.1-9.8-7V84.7l.2-5.2,3.9-3.1,2.4-1.3,1.9.3.5-1.2,4.2-.7,2-2.5,2.6-1.1,2-2.4V65.2l3.2-.8.4-1.1,1.9-.4,4.7.2.8-1.8-1.8-2-.6-2.2-.4-6.9L99,48.5h1.2l3.9-2.8,3.8-1.1,1.8-1.8,2.9-1.2,5.3-.4,1.4-.9,3.2-.5h3.8l1.7,1,3.4-.9,1.6-1.1,1.8.9,2.6-.4,1.2.7Z"/><path class="b" d="M258.2,112.2l.4,2,1,2.3.5,2.7.4,4.7,1.1,3.7,2,1.3,2.9,2.7-1.3,2-1.9.6-1.5,2h-1.6l-.2,3.7-1.8,5.6.6,4.3-.4,3-.7,1.7-.3,2.7-2.1.9-1.9,3.5-.6,4.6h-1.5l-1.2,1.7.2,2-.8,3.2-.9-3.6-3.1-3.1-.5-3.6.4-3.1-1.9,1h-2.7l1.1,1.4.4,3.1-1.9,2-1.1,2.1-1.8,2-2,.3-3.1-2.6-1.6,1-.5,1.5-2,.8-.6,1.3h-3.3l-.7-1.3h-3.4l-2.2.5-2.8-3.3-.4-1.1-3,.6-1.1,2.6-1,4.2-1.6,1.1-2.5-.7.3-4.9-1.6-3.1-1.7-2.2.2-2-1.6-1.6-.9-4.8-2.2-.6,1.6-2.7-.6-1.9,1.7-1.9-.6-2.1,1.2-.8,1-2.1.6-2.6,3.6-.4-.2-7.2-.4-10.9v-2.4h4.1l-.4-9.7h48.5Z"/><path class="b" d="M207.7,65.2l-1,1.6.6,2.7-.8,3.1,1.3,4.7.4,6.5.6,9.9.4,7.6.5,10.9.4,9.7H206v2.4l-10-5.7-8-4.6-8-4.6-7.3-4.2-4.1,2.2-3,1.8-3.1-2.7-6.2-1.7-2-3.9-3.3-1.1-1.8-.2L148.2,96l-2.3-3.6.2-1.3,1.4-1-.5-3.8.6-2.2-.4-5.8-.8-2.9-1.5-2.7.9-.5,1.4-.8,1.3-1.9-.5-3.3,2.7-3,2.7-1.7-.2-3.7,3.2,1.6,1.9.3,2-.6,3.9,1.1,1.1.9,2.6.5,1.5,3.6,2.5,1.9,5,.9,3.4,1.5,3.1,2.4h1.4l1.6-1L188,68l-1.1-3.6.7-1.9,1.9-1.8,3.9-1.7h2.2l3.7,1.4.9,2,3.4,1h2.2Z"/><path class="b" d="M57,147.1,54.6,145,53,142.8l-.6-1.8-1.9-.4-1.7-2.1-3.4-.3-2.1.7-2.2-.2-1.2,1.6-.4,1.8v-2.2l2-6.1v-4.7l-.4-2.4L40,125l1-2.1.3-2.1-.8-2.1L38,118l.4-2.5H54.5l-.2-5.6.4-2.5,1.7-1.3,2.4-.9.3-12.3H72.6V86.5l9.8,7,5.7,4.1H81l1,12,.6,7.3,1.1,12,.8,9.7,1.1,1.3-.6,3.9H69.8l-3.1.5-3.1-.2-.9,1.3-2.5-2.3-1,1-.5,2.1Z"/><path class="b" d="M281.2,226.9l-2.3-4V205.1l1.6-1.9,2.2-3.7.6-.8,3.2-.7.9-1.4,2.2-1.3,2-.5,3.8.2,4-5.3,8.3-9.6h-4.2l-12.4-4.8-2.3-1.9-1.4-2.5-1.4-1.5-.8-2,1-1.9,1.2-2.4,2.7,3.5,2.3,1.7h2.3l3.5-2,3.2.5,3.4-2.1,2.5.2,2.7-.9,1,.3,4.9-1.3,2.7-2.2,2,.7-.6,2.4.4,3.3-.9,1.9-.2,4-1.5,2.9-1.3,3.1-2.9,5.8-1.2,4-1.6,3.2-2.7,4.9-4.5,5.8-3.4,3.9-4.7,3.3-2.4,2-3.6,3.7-6.3,7.7Z"/><path class="b" d="M72.8,84.7v8.1H59.1l-.3,12.3-2.4.9-1.7,1.3-.4,2.5.2,5.6H38.4L38,118l.6-5.3,1.8-2.1,1.3-3.7,2.7-4.8,2.3-2.3.8-1.6.3-2.6,1.7-4.1,3.4-2.3,1.8-4.5Z"/><path class="b" d="M287.2,163.1l-1.2,2.4-1.6-.4-3.1.5-.2-2.9,2.3-4.3,1.3.5,1.7-1.6,1.4,2.5-.6,1-1.9,1.1Z"/><path class="a" d="M235.3,327.2l.8,5.2.9,2,.5,2.8-.6,7.2-2.1-1-.8.5-1.9,2.8v1.7l1,1.7,1.5.9h2l.8-2.3h3.1l-1.9,6.6-1.2,2-2.1,1.5-2,2.2-4.8,7.7-6.2,6.5L218,379l-3.3,2.2-2.6,1.2-1.7-.2-1.5,1.4-2.5-.2-.8,1-4.8-.9-1.3.5h-4l-1.9,1.5h-2.9l-2.1.5-2.1,1.6-1.5-.2-3.1-3.1-1.7-.8.3-1.1-2-3.7,1.6-1.5.3-2.6-.3-1.8-1.9-3.5-1.8-4.5-.8-3.4-1.8-3.8,1.2-.8,1.3-2.1,1.3,1.6.2,1.7,2.5.8,4.6.2,1.8-2,1.3-.2.4-9.4.4-8.5,1.4,1.2,1.6,4.3-.8,2.6.4,2H195l1.9-1.3,2.3-2.5,1.2-3,1.6-.9,2.4,1.6,3.4,1.1,3.5-1.1,1.5-4.1,2-.7,1.9-1.8,1.4-3.5,3.2-2.2,1.4-1.8,2.6-1.1,2.2-1.4,1.3-.2,3.2.9Zm-16,31.6-2.3,3-1,.7,1.1,3.2,2.4,1.5,1.7-2.4,2.9-1.1,1.4-3.1-.3-.9-2.6-2.5Z"/><path class="a" d="M158.7,246.5l-.8-3.6,1.5-1.9,2.1-.8.8.9-1,.5-1.3,2v2.6Zm48.6,24.7v7.6l-.7,2.8h-7.7l-.4,14.3.6,3.1,5,5-8.2,1.8h-3.2l-1-.6h-3.1l-3.3-.5-1.7-1.7H165.1L163,301l-1.3-.2-2.3,1.2h-3.3l.3-2.6-.2-4.2.9-1,1.4-4.8,1.2-5.8,1.8-3.2,1.9-1.3,1.5-3.4.3-3.7-2.5-6.5-.9-3.2,1.5-1.7v-1.6l-2.1-5.5v-1.3l-1.3-1.8-.9-2.4,3.2-1.1,5.6.2,8-.2,1.6,1.9V250l1.8,4.8,1.5,2.9,4.7-.7,2.9.2.8-4,1.4-.7,2.6-.4.5,1.8h4.7l.6,6.7-.5,3.8,1.6,2.7.4,3.2,1,1.7,5.3-.2Z"/><path class="b" d="M202.7,165.9l1.7,2.2,1.6,3.1-.3,4.9,2.5.7.7,1.8,2.3.8,1.7,2,.6,1.9,2.1,1.3,2,2,.7,2.8,2.4,1.4L222,194l-1.2-.4-1.2.6-5.4-1.2-1.1,1.4-2.1.5-1.8-.3-3.8,1.6h-2.7l-1.4,2.5-3.7-.5-4.1-1.1-1.4-1.7-1.8-1.3-1.2-.2-1.8,1.2-2.1,3,.2,3.8h-1.9l-3-.9-3.2.7-.8,3.4-1.2,2.7-.5-3.1-1.2-1-2.7-3.4-.5-2.6-1.3-1.4-.4-5.8.5-2,2-4.8,1-1.3,1.5.3,2.2-1,1.7.6,3.6-2.1,3.4-.2,2.7-3v-1.8l5-.5,1.7-1.4,2-2.7,1.9-1.9v-1l3.2-2.1Z"/><path class="a" d="M235.3,327.2l-3.3-.4-3.2-.9-1.3.2-1.2-1.8-4-1.2-1.4-2.4.2-2.6-1.7-.3v-1.6l-2.2-1.2-2-1.8-1.5-4.3-2.1-3.5.2-.6,2.4.7h4.8l3.9-5.2,3.5-1.7.7-2.7,3.5-1.6h2.7v1.7h3.3l2.8,2h1.3l2.8,1.2-.2,8-1.2,3.1.9,4.3-2.4,4.1-.6,3Z"/><path class="a" d="M266.5,131.6l1.4,2.8,1.2,3.4.8,3.9,1,1.9,1.5.3,1.5,2.2L278,148l2.1,3.1,2.5,1.9,2.5,3.5,1.3.8-1.7,1.6-1.3-.5-2.7-3.4-1.7-1.6-2.6-3.1-2.3-1.4-4.8-.9-2.3.9-2.7-2-1.1,3.4-1.4-1.5-.9.9h-2.1l-.6-4.3,1.8-5.6.2-3.7h1.6l1.5-2,1.9-.6Z"/><path class="b" d="M163.2,208.3l-.5,2.4.5,2,2.4-.9,1.3.3,1.1,2.7-1.4,1.3-.9,1.7v1.9l2.6,2-.4,6.1-1.3,2.8-1.2-1.4-1.4,1.1-1.9-.4-.9-1.9h-1.5v2l-3.6.3-.2,2.1,1.6,2.3-1.8,1-1.5,1.9-3.3-4.3-3-3.2-1.5-2.6.3-1.4-1.1-1.1-1-2.9,2-1.7,1.2-6.7,7.3.2v-6.3l7.8.2Z"/><path class="b" d="M72.4,182.2l.8,2.3-.2,1.3-1.1,1.5,2.9,1.3.4,1.2,1.4.7V193l-.5,1.1v3.6l-2.9-1.2-3.7-2.2-4.7-5-5.1-4,1-1.6,2.6-2.5,1.5-3.5,2.2-.2,1,.9.6,3.4-.4.9,1.4,1.1,1-.2.8-1.9Z"/><path class="a" d="M111.5,165.6l-.5,3,2.3,1.8.4,3.4.7,1.2v13.7l-1.8.6-1.9-1.8-.9-1.9.5-2.4-.2-3.9.4-.7-1.1-1.7.4-3.4-1.1-.7.4-3.6-1.7-1.9V165Z"/><path class="a" d="M45.3,165.8l-1.5-1.3-.4-2.5-2.6-.9L38.4,159l4.8-.7,1.5-.9h6.1V162l-3.9,1.1Z"/><path class="b" d="M147.8,213.7l-.9-.5,1.8-3.8v-1.8l.8.6H155v5.7Z"/><path class="a" d="M243.9,66.8l.2.6,3.4,8.4-.6,1-.8,6.1-.7,1.3-1.9-1.4-2.3-2.6-.9-2.4-1.6-2.2v2.6l1.2,2.1,2.9,3.2v1.4l1.6,2.7.4,2,2.8,4.6,3,6,1.9,2-.3,3,.9,2.4,2.3,1.5,2.8,3.1H209.7l-.5-10.9-.4-7.6-.6-9.9-.4-6.5-1.3-4.7.8-3.1-.6-2.7,1-1.6,1,.7,2-.5,5.5,1.2,3,1.3,2.1.3,2.4,1,2-.8,3-2.2,1.2.2,1.9-.8,3.8,2.4,4.1-.4,2.1.2Z"/><path class="a" d="M99,48.5l1.7,1.7.4,6.9.6,2.2,1.8,2-.8,1.8L98,62.9l-1.9.4-.4,1.1-3.2.8v2.3l-2,2.4L87.9,71l-2,2.5-4.2.7-.5,1.2-1.9-.3-2.4,1.3L73,79.5l-.2,5.2H54.7l.9-1.3,3.9-1,2.3-1.2,1.5-1.7,2.4-1.7,3.4-5.1V71.1l-.9-1.3.4-3.5,1.9-3.2.5-2.3,2.6-3L80.5,54l2.2-3.9,1.8-4.9,2.1-.7,1.1,2.2,3,1.5,2.5-.6,3.4.7Z"/><path class="a" d="M153.2,57.8l.2,3.7-2.7,1.7-2.7,3,.5,3.3-1.3,1.9-1.4.8-2.2-9-2.8-2.3-.6-1.9-1.8-1.4-1.1-3V53.4l2.8-3.1.5-2.3-.7-3.3V41.5l1.3-1.9,4.3-2,2,.7,1.5,1.5h2.2l-2.3,2.6.3,2.2,1.7,1.2.5,1.9-2.2,3.4-1.8,1.6.4,1.8,2.3,1.6,1.4-.3.5,1.6Z"/><path class="a" d="M222,194l1.7,2.3,1.7,1.4,2.2-.8,1.8.6,2.1-1,2.2,3,1.4.7,1.3,1.6-.4,5,1.9.9.3,1.1-1.3,1.8-4.1,4.1v1.6l-.9,1.9-.6,5.2v2l-1.8,2.3v1.8l-1,.8.6,1.5.8,1.6v4.2l.7,2.6-.3,2.6,1,3.2-.5,1.8,1,2.9,2.4,2.8,1.8,4.8-7.5,1.3-.2,1.1-2.2,2.6.9,2.9v4.1l-1.3,3.9.5,1.6,2.3,2.6,1.5.4,1.6-1.3-.2,6-1-.7-2.2.5-2.6-4.3-3.4-1.3-1.9-2.9-.5,1.4-1.4.4-2.4-.4-2.8-1.3-.6-1.9-2.8,1-.8-1.8-1.4-1-.6.7-5.3.2-1-1.7-.4-3.2-1.6-2.7.5-3.8-.6-6.7h-4.7l-.5-1.8-2.6.4-1.4.7-.8,4-2.9-.2-4.7.7-1.5-2.9-1.8-4.8v-1.1l-1.6-1.9-8,.2-5.6-.2-2.7.6-.8-1.1,1.2-.3v-2.6l1.3-2,1-.5,1.4,1,3.9-2.6.2,2.5h1.6l3.4-3.9,1.2-.5,1.1-2.3.3-2.1v-4.1l1.4-1.6,1.4-3,1.7-1.1,2-2.2-.2-1.3.7-2.4v-4.3l.6-2V209l1.7-4.4.5-2.7-.2-3.8,2.1-3,1.8-1.2,1.2.2,1.8,1.3,1.4,1.7,4.1,1.1,3.7.5,1.4-2.5h2.7l3.8-1.6,1.8.3,2.1-.5,1.1-1.4,5.4,1.2,1.2-.6Z"/><path class="a" d="M125.1,126.1v10.4l-.2,2-1.3,4-1.5,1.9-9.1.4-1.4,1.4-3.1.4-1.8-.7h-2.2l-1.2,1.1-3,1.6L99,150.2l-1.4-.5-3.1,2.9-.4,1.9-1.2.4-2-.9-1.1,1.3.4,1.5-1,.6.2,1.7-1.6,1.4-2,1v3l-.8.8v3l-2.2,1.1-.9-2.5-1.8,1.8-1.7.7-2.3-1.1-1.4,1.3-1-1.4-.7-4.5-1.7-1.4-.9-3.6L67,160.5l-1.9-.8-1.7,1.5-1-1.5-1.6.9-.3-1.9v-2.6l-1-2-1.7-1.3L58,150l-1-2.9,1.7-.9.5-2.1,1-1,2.5,2.3.9-1.3,3.1.2,3.1-.5H85l.6-3.9-1.1-1.3-.8-9.7-1.1-12-.6-7.3-1-12h7.2l6.3,5,8,6.2,9.9,7.8v1.3l2.1,2.2,2.2.6.8.9,3.3,1.3.2,1.9-.6,1.2,1.2.8Z"/><path class="c" d="M168.7,107.4l1,5.2v1.9l1.8,2.8v1l1.5,2.1-.8,2-.7,14.5-4.5,5.6-3.6,6.7.7,3.2-1.2.2-2.8,1.7-.7,1.1-4.4-1.3h-1.9l-3.2.5-2.3,2.3-3.6-.5-2.7-1.9-1.3-.2-3,1.6-1.1-.5-1.7-2.4-3.7-1.3-2.8.6-2.8,1.4-.8,3.3-1.3,1.2-.2,4.1-2.9-3.3-2.2.7v1.6l-1.2-1.9v-2.1l-2.1.4-2.4-2v-2.4l-1.5-.8-1.9-3.8.2-2,3.1-.4,1.4-1.4,9.1-.4,1.5-1.9,1.3-4,.2-2V126.1l6.6-1.7,6.6-6.7,7.7-5.5,10.4-7.4,6.2,1.7,3.1,2.7Z"/><path class="c" d="M240.4,348.8h-3.1l-.4-4.3.6-7.2-.5-2.8-.9-2-.8-5.2L240,322l.6-3,2.4-4.1-.9-4.3,1.2-3.1.2-8-2.8-1.2h-1.3l-2.8-2h-3.3v-1.7l-.5-3.2,6.2-2.4,6.2-2.3,1.7,2.6,2.9-.7.7.9v3.4l-1.3,2.8.5,1.5,3.5,4.4-.4-2.6.9-1.9,1.7-.5.6-6.8-2.3-3.7-2.7-2.6-.7-5.6,1.4-3h4l.7-.6,3,1.2,1.9-.7,2.3.5,1.7-1.8,2.3.6,1.3-.9,2.2-.5,2.8-1.5,2.1-1.7.2,2.9-.6,1.3.4,6.3-.3,4,.2,4.5.7,1.9-1.3,3.3-2,2.5-1.2,2.2-3.2,2.6-4,1.3-3.8,2.4-3.1,3.8-3.8,3.1-3.1,3.2h-.8l-.4,2.9,1.1,1.9.9,4.1v3.6l.9,2.8-1.1,4,.2,1.9-1.3,1.8-2.3,1.3-5.3,2.2-2.4,1.8-.9,1.8,1.3,1.2Z"/><path class="b" d="M283.4,158.4l-2.3,4.3.2,2.9,3.1-.5,1.6.4-1,1.9.8,2,1.4,1.5,1.4,2.5,2.3,1.9,12.4,4.8h4.2l-8.3,9.6-4,5.3-3.8-.2-2,.5-2.2,1.3-.9,1.4-3.2.7-.6.8h-2.7l-2-1.5-3.8,2-1.4,1.9-5.9-.9-5-3.7-3.4-.2-1.4-1.7v-2.6l-2-.7-.8-.9-1.6-4.8-2.8-2.7-1.7-2.2-1.8-.4-.9-.9.9-2.2,3-.2.5-.7V173l.8-3.2-.2-2,1.2-1.7h1.5l.6-4.6,1.9-3.5,2.1-.9.3-2.7.7-1.7.4-3h2.1l.9-.9,1.4,1.5,1.1-3.4,2.7,2,2.3-.9,4.8.9,2.3,1.4,2.6,3.1,1.7,1.6Z"/><path class="b" d="M202.7,165.9l-1.6-.4-3.2,2.1v1l-1.9,1.9-2,2.7-1.7,1.4-5,.5v1.8l-2.7,3-3.4.2-3.6,2.1-1.7-.6-2.2,1-1.5-.3-.2-1.5-1.4-3.5-3.3-3.1-1.5-2.3,1.1-1.4h5.4l-1.7-3.4-.5-2.2.2-3.6-1.4-3.9-1-1.6-1.9-.4-1.9-3.1-.7-3.2,3.6-6.7,4.5-5.6.7-14.5.8-2-1.5-2.1v-1l-1.8-2.8v-1.9l-1-5.2,4.1-2.2,7.3,4.2,8,4.6,8,4.6,10,5.7.4,10.9.2,7.2-3.6.4-.6,2.6-1,2.1-1.2.8.6,2.1-1.7,1.9.6,1.9-1.6,2.7,2.2.6.9,4.8,1.6,1.6Z"/><path class="a" d="M204,304l3.7-.7,2.7.3,1.3,1.2-3.8.9-3.3,2.3-1-2.1-9.7,1.4-.4,12.9-.2,5h-4l-.5,13.5-.4,8.5-.4,9.4-1.3.2-1.8,2-4.6-.2-2.5-.8-.2-1.7-1.3-1.6-1.3,2.1-1.2.8-2.9-3.2-1.4-2.8-1.3-5.2-.4-2.9v-3.4l-1.3-4v-4.5l.3-2.8-.7-2.5-1.4-2-2.1-4.2-1-3.5-2.8-6.1-1.5-1.9-1.2-2.6v-3.7h3.3l2.3-1.2,1.3.2,2.1,1.8h18.4l1.7,1.7,3.3.5h3.1l1,.6h3.2Z"/><path class="c" d="M249.3,223.5l3.6,2.2,6.2,4,5.8,3.7-.2,2,.8,1,5.9,5-1.8,5.7.2,2.2,2.4,2.6.2,1.2-1,1.9.6,2.4-.7,2.1,1.8,7.1,2.8,2.7-2.1,1.7-2.8,1.5-2.2.5-1.3.9-2.3-.6-1.7,1.8-2.3-.5-1.9.7-3-1.2-.7.6h-2.8l-1.4-2.4.3-1.8-.5-3.3-.8-1.5-5.8-1.5-1.9-1.3-2.1-.4-2.4-2.2h-1.1l-1.3-2-1.8-4.8-2.4-2.8-1-2.9.5-1.8-1-3.2.3-2.6h1.3l1.8-1.8,1.2-2.4,1.6-1.5-1.2-1.7.2-2.5,1.1-.3v-3.8l-1.3-2.3,1.4-.4h12.8Z"/><path class="b" d="M164.1,152.4l1.9,3.1.6,3.3,1.8,1.4-.2,2.9-2.8,1.7-1.4,2.6-1.1,2.8-.4,2.4-1,.5-.5,2.7-1.6,1.4-1.6,4.8-1,1.6-.9,2.7-1.7,1.3-.5-1.3-1.8-1.7-1.9.3-4.5,4.8-1.1,3.9-1,2.1-1.1,1-4.7.2-1.7.8-2.8.3-2.1-1.8-1.5-4-1.5-2.6-1.8-1.6-1.3-.3-5.9.2.3-1.6-.4-5.7.4-5.6,1.1-.2,1.2-3.4.9-.6v-1.7l1.1-1.7-.5-2.3-1-1.5.4-1.4.2-4.1,1.3-1.2.8-3.3,2.8-1.4,2.8-.6,3.7,1.3,1.7,2.4,1.1.5,3-1.6,1.3.2,2.7,1.9,3.6.5,2.3-2.3,3.2-.5H155l4.4,1.3.7-1.1,2.8-1.7Z"/><path class="c" d="M244.6,264.2l1.8,2.2,1.2,3.5-1.7,1.5.4,1.2-.7,1.9v2.8l.5,1.8-1.6.7-.3,2.8-1.3,1.9,1.2,1.9h.9l-6.2,2.3-6.2,2.4.5,3.2h-2.7L227,296l-.7,2.7-3.5,1.7-3.9,5.2h-4.8l-2.4-.7-1.3-1.2-2.7-.3-3.7.7-5-5-.6-3.1.4-14.3h7.7l.7-2.8v-7.6l1.4,1,.8,1.8,2.8-1,.6,1.9,2.8,1.3,2.4.4,1.4-.4.5-1.4,1.9,2.9,3.4,1.3,2.6,4.3,2.2-.5,1,.7.2-6-1.6,1.3-1.5-.4-2.3-2.6-.5-1.6,1.3-3.9v-4.1l-.9-2.9,2.2-2.6.2-1.1,7.5-1.3,1.3,2h1.1l2.4,2.2,2.1.4Z"/><path class="c" d="M313.1,278.8l1.5,3.1.7,4.7v3.3l.8,3.2-1.3,2.8-1.1-2.4-1.1.5.5,4.4-1.8,3.7v3.2l-4.6,12.4-1.4,4.3-2.2,5.5-2.1,6.8-1.9,4.5-2,1.7-2.4.4-2.8,1.6h-1.6l-1.1-1-1.8-.5-1.2-1.1-1.1-3.1.5-4.1-1.1-3.1-.2-4.1,1.2-3.3,1.6-1.4,2.6-5.6.4-2.4-.8-1.7v-1.6l-.6-2.2v-4.4l2-3.3.4-2.4,1.8-.2,1.1-.9h1.8l.5-.8,2.6-.5.6-1,5.8-4.7,1-2.8,3.4-3.4.7-3.9,1.3-1.8Z"/><path class="b" d="M249.5,173v4.2l-.5.7-3,.2-.9,2.2.9.9,1.8.4,1.7,2.2,2.8,2.7,1.6,4.8.8.9-5.3,6.1-2,2.3-2.7-.3-2.1.5-1,.8-1.3-1.3-1.3.6-1.4-.5-1.3,1.4-1.3-1.6-1.4-.7-2.2-3-2.1,1-1.8-.6-2.2.8-1.7-1.4L222,194l-1.3-3.2-2.4-1.4-.7-2.8-2-2-2.1-1.3-.6-1.9-1.7-2-2.3-.8-.7-1.8,1.6-1.1,1-4.2,1.1-2.6,3-.6.4,1.1,2.8,3.3,2.2-.5h3.4l.7,1.3h3.3l.6-1.3,2-.8.5-1.5,1.6-1,3.1,2.6,2-.3,1.8-2,1.1-2.1,1.9-2-.4-3.1-1.1-1.4h2.7l1.9-1-.4,3.1.5,3.6,3.1,3.1Z"/><path class="b" d="M172.2,182.3l-1,1.3-2,4.8-.5,2,.4,5.8,1.3,1.4.5,2.6,2.7,3.4,1.2,1,.5,3.1-.5,2.9-1.3-1.2L170,209l-1.8-.7h-5l-.3-.5-7.8-.2v.6h-5.6l-.8-.6.4-4.9-1.9-3-1.8-.8-.4-1.6-1.5-1.6,1-2.1,1.1-3.9,4.5-4.8,1.9-.3,1.8,1.7.5,1.3,1.7-1.3.9-2.7,1-1.6,1.6-4.8,1.6-1.4.5-2.7,1-.5.4-2.4,1.1-2.8,1.4-2.6,2.8-1.7.2-2.9-1.8-1.4-.6-3.3,1.9.4,1,1.6,1.4,3.9-.2,3.6.5,2.2,1.7,3.4h-5.4l-1.1,1.4,1.5,2.3,3.3,3.1,1.4,3.5Z"/><path class="c" d="M211.7,304.8l-.2.6,2.1,3.5,1.5,4.3,2,1.8,2.2,1.2v1.6l1.7.3-.2,2.6,1.4,2.4,4,1.2,1.2,1.8-2.2,1.4-2.6,1.1-1.4,1.8-3.2,2.2-1.4,3.5-1.9,1.8-2,.7-1.5,4.1-3.5,1.1-3.4-1.1-2.4-1.6-1.6.9-1.2,3-2.3,2.5-1.9,1.3h-3.6l-.4-2,.8-2.6-1.6-4.3-1.4-1.2.5-13.5h4l.2-5,.4-12.9,9.7-1.4,1,2.1,3.3-2.3Z"/><path class="c" d="M282.5,199.5l-2.2,3.7-1.6,1.9v17.8l2.3,4-2.3,1.2-1.5,2.9-1.8.7-.4,2.7-2.7,5.9-1.1,1.1-5.9-5-.8-1,.2-2-5.8-3.7-6.2-4-3.6-2.2.2-5.6,2.2-4.2,1.3-.9.7-2v-2.1l-.9-3.6-1.3-1.7-.2-2.5-1-.6-.8-2,5.3-6.1,2,.7v2.6l1.4,1.7,3.4.2,5,3.7,5.9.9,1.4-1.9,3.8-2,2,1.5Z"/><path class="c" d="M185.4,201.9l-.5,2.7-1.7,4.4v2.3l-.6,2v4.3l-.7,2.4.2,1.3-2,2.2-1.7,1.1-1.4,3-1.4,1.6v4.1l-.3,2.1-1.1,2.3-1.2.5-3.4,3.9h-1.6l-.2-2.5-3.9,2.6-1.4-1-.8-.9-2.1.8-1.5,1.9-1-2.1-2.7-3.2,1.5-1.9,1.8-1-1.6-2.3.2-2.1,3.6-.3v-2h1.5l.9,1.9,1.9.4,1.4-1.1,1.2,1.4,1.3-2.8.4-6.1-2.6-2v-1.9l.9-1.7,1.4-1.3-1.1-2.7-1.3-.3-2.4.9-.5-2,.5-2.4h5l1.8.7,3.5.4,1.3,1.2.5-2.9,1.2-2.7.8-3.4,3.2-.7,3,.9Z"/><path class="c" d="M108.6,146.6l-.2,2,1.9,3.8,1.5.8v2.4l2.4,2,2.1-.4v2.1l1.2,1.9-1.7,2.3h-2.3l-2.1,2.2-4.1-.6-2.6.6H96l-.4,2,.5.9.4,4.5-2.2-2H91.6l-3.1.9-1.4-1.1-.6-1.5-1.7-.9v-3l.8-.8v-3l2-1,1.6-1.4-.2-1.7,1-.6-.4-1.5,1.1-1.3,2,.9,1.2-.4.4-1.9,3.1-2.9,1.4.5,1.4-1.6,3-1.6,1.2-1.1h2.2Z"/><path class="c" d="M60.5,158.7l.3,1.9,1.6-.9,1,1.5,1.7-1.5,1.9.8,3.2-1.8.9,3.6,1.7,1.4.7,4.5,1,1.4-.6.7v2.5l1,.4-.3,3,.6,1.6-1.8,4.4h-1l-.9-.5-.8,1.9-1,.2-1.4-1.1.4-.9-.6-3.4-1-.9-2.2.2-.9-1-.7-3-2.2-3.2H58.2l-2.4.6-1.1,2.4L52.4,175l-1.6-3.9-3-1.9-1.4-3.3H45.3l1.5-2.7,3.9-1.1v-4.6l2.7.2,3.3,1.5Z"/><path class="c" d="M84.8,168.3l1.7.9.6,1.5,1.4,1.1,3.1-.9h2.7l2.2,2-.2,1.8,1,4.3-1.2,1.4-.8,3.5-1.1,1.9.2,2.2,1.7,5.6-1,.3-4.2-.5-6.4.7-5.7,2.2-2.6,1.4v-3.6l.5-1.1v-2.5l-1.4-.7-.4-1.2-2.9-1.3,1.1-1.5.2-1.3-.8-2.3h1l1.8-4.4-.6-1.6.3-3-1-.4v-2.5l.6-.7,1.4-1.3,2.3,1.1,1.7-.7,1.8-1.8.9,2.5Z"/><path class="c" d="M249.3,223.5H236.5l-1.4.4-1.7,1.4h-2.2v-2l.6-5.2.9-1.9v-1.6l4.1-4.1,1.3-1.8-.3-1.1-1.9-.9.4-5,1.3-1.4,1.4.5,1.3-.6,1.3,1.3,1-.8,2.1-.5,2.7.3,2-2.3.8,2,1,.6.2,2.5,1.3,1.7.9,3.6v2.1l-.7,2-1.3.9-2.2,4.2Z"/><path class="c" d="M107.4,165v2.3l1.7,1.9-.4,3.6,1.1.7-.4,3.4,1.1,1.7-.4.7.2,3.9-.5,2.4.9,1.9,1.9,1.8-1,1.3-2.9.3-4.4,2.5-3.5,1.2-1.5,1.1-4.7-1.6.2-.2h.2l1-.3L94.4,188l-.2-2.2,1.1-1.9.8-3.5,1.2-1.4-1-4.3.2-1.8-.4-4.5-.5-.9.4-2h8.8Z"/><path class="c" d="M57,147.1l1,2.9-.2,2.8,1.7,1.3,1,2v2.6l-3.7.4-3.3-1.5-2.7-.2H44.7l-1.5.9-4.8.7v-3.5l.5-.4h3.3l1.4-2.1H39.2l-2.5-5.1.2-1.4,2.6-4.4.4-1.8,1.2-1.6,2.2.2,2.1-.7,3.4.3,1.7,2.1,1.9.4.6,1.8,1.6,2.2Z"/><path class="c" d="M252.8,274.7h-1.2l-1.4,3,.7,5.6,2.7,2.6,2.3,3.7-.6,6.8-1.7.5-.9,1.9.4,2.6-3.5-4.4-.5-1.5,1.3-2.8v-3.4l-.7-.9-2.9.7-1.7-2.6h-.9l-1.2-1.9,1.3-1.9.3-2.8,1.6-.7-.5-1.8v-2.8l.7-1.9-.4-1.2,1.7-1.5-1.2-3.5-1.8-2.2,5.8,1.5.8,1.5.5,3.3-.3,1.8Z"/><path class="c" d="M122.6,162.2l-.4,1.4,1,1.5.5,2.3-1.1,1.7v1.7l-.9.6-1.2,3.4-1.1.2-.4,5.6.4,5.7-.3,1.6-4.5.8V175l-.7-1.2-.4-3.4-2.3-1.8.5-3,2.1-2.2h2.3l1.7-2.3v-1.6l2.2-.7Z"/><circle class="d" cx="335.9" cy="104.4" r="20.7"/><path class="c" d="M64.9,177.7l-1.5,3.5-2.6,2.5-1,1.6-1-.9L55.7,183v-1.3l-1.5-1-1.4-4-.3-1.7,2.3-1.6,1.1-2.4,2.4-.6h2.9l2.2,3.2.7,3Z"/><path class="c" d="M332.3,95.1h1.1l2.1,2,3,4.6.3,1.5,2,4v1.9l-.9,2.3-3.7,2.1-2.6-.8-1.2-3.3-.4-3.6.2-6.4.7-2.1Z"/><path class="b" d="M219.3,358.8l3.3-1.6,2.6,2.5.3.9-1.4,3.1-2.9,1.1-1.7,2.4-2.4-1.5-1.1-3.2,1-.7Z"/><path class="c" d="M235.3,230.3l-.2,2.5,1.2,1.7-1.6,1.5-1.2,2.4-1.8,1.8h-1.3l-.7-2.6v-4.2l-.8-1.6,1.5.5,2-.5.3-1.8Z"/><path class="c" d="M235.1,223.9l1.3,2.3V230l-1.1.3-2.6-.3-.3,1.8-2,.5-1.5-.5-.6-1.5,1-.8v-1.8l1.8-2.3h2.2Z"/><path class="a" d="M236.9,344.4l.4,4.3-.8,2.3h-2l-1.5-.9-1-1.7v-1.7l1.9-2.8.8-.5Z"/><path class="b" d="M38.3,155.5l-.3-1.3,1.2-1.2h4.3l-1.4,2.1H38.8Z"/><path class="b" d="M84.2,296.1l-.3-.2.3-.3Z"/><path class="b" d="M86.8,43.3v.3h0Z"/><path class="b" d="M283.9,301.3h0Z"/><line class="e" x1="351.6" y1="90.8" x2="368.1" y2="74.2"/><circle class="f" cx="386.6" cy="74.3" r="1.7"/><line class="e" x1="368" y1="74.3" x2="386.4" y2="74.3"/></svg>